<svg xmlns="http://www.w3.org/2000/svg" width="32" height="32" viewBox="0 0 32 32">
  <!-- Background grid pattern (representing transparency) -->
  <defs>
    <pattern id="transparency" width="8" height="8" patternUnits="userSpaceOnUse">
      <rect width="4" height="4" fill="#e0e0e0" />
      <rect width="4" height="4" x="4" y="4" fill="#e0e0e0" />
      <rect width="4" height="4" x="4" y="0" fill="#f5f5f5" />
      <rect width="4" height="4" x="0" y="4" fill="#f5f5f5" />
    </pattern>
  </defs>
  
  <!-- Circular background -->
  <circle cx="16" cy="16" r="15" fill="url(#transparency)" stroke="#a855f7" stroke-width="2" />
  
  <!-- Image silhouette (person) -->
  <path d="M16 8c-2.2 0-4 1.8-4 4s1.8 4 4 4 4-1.8 4-4-1.8-4-4-4zm0 10c-2.67 0-8 1.34-8 4v2h16v-2c0-2.66-5.33-4-8-4z" fill="#7e22ce" />
  
  <!-- Magic wand effect -->
  <path d="M24 9l1 1-1 1 1 1-1 1" stroke="#06b6d4" stroke-width="1.5" stroke-linecap="round" />
  <circle cx="25" cy="7" r="1" fill="#06b6d4" />
  <circle cx="27" cy="9" r="1" fill="#06b6d4" />
</svg> 